<svg id="グループ_11" data-name="グループ 11" xmlns="http://www.w3.org/2000/svg" xmlns:xlink="http://www.w3.org/1999/xlink" width="285.72" height="124.828" viewBox="0 0 285.72 124.828">
  <defs>
    <clipPath id="clip-path">
      <rect id="長方形_1" data-name="長方形 1" width="285.72" height="124.828" fill="none"/>
    </clipPath>
  </defs>
  <g id="グループ_1" data-name="グループ 1" clip-path="url(#clip-path)">
    <path id="パス_1" data-name="パス 1" d="M24.278,169.444a54.46,54.46,0,0,1-2.206,6.241,34.754,34.754,0,0,1-7.277,1C4.551,176.688,0,170.027,0,163.5c0-8.161,6.22-13.722,15.508-13.722a41.4,41.4,0,0,1,7.489.938c.185,1.834.462,4.573.754,6.4l-1.461.278c-.819-2.939-1.924-4.46-4-5.292a10.286,10.286,0,0,0-3.7-.624c-6.024,0-9.111,4.809-9.111,11.141,0,7.391,3.808,12.305,9.585,12.305,3.577,0,5.715-1.785,7.812-6.005Z" transform="translate(0 -51.86)" fill="#1a1311"/>
    <path id="パス_2" data-name="パス 2" d="M71.114,151.971c-2.523.21-3.28.922-3.41,2.487-.092,1.092-.171,2.55-.171,5.629v4.872c0,3.63-.527,6.952-2.8,9.344a10.089,10.089,0,0,1-7.395,2.665,11.1,11.1,0,0,1-6.885-1.977c-2.326-1.772-3.449-4.3-3.449-8.807V156.13c0-3.618-.343-3.881-3.41-4.159v-1.342H55.2v1.342c-3.041.249-3.385.541-3.385,4.159v10.318c0,4.91,2.374,7.926,6.8,7.926,5.034,0,7-3.486,7-9.652v-4.635c0-3.053-.12-4.508-.2-5.655-.146-1.809-1.186-2.3-4.015-2.461v-1.342h9.717Z" transform="translate(-15.094 -52.154)" fill="#1a1311"/>
    <path id="パス_3" data-name="パス 3" d="M111.453,169.552c-.29,1.536-1.427,5.71-1.8,6.835H90.431v-1.341c3.528-.279,3.845-.528,3.845-3.872v-15.32c0-3.342-.4-3.617-3.437-3.883v-1.342h11.754v1.342c-3.119.292-3.53.527-3.53,3.883v15.639c0,2.263.163,3.1,2.37,3.141.066.025,2.249.039,2.436.039,2.175,0,2.769-.393,3.706-1.435a15.336,15.336,0,0,0,2.469-4.108Z" transform="translate(-31.311 -52.154)" fill="#1a1311"/>
    <path id="パス_4" data-name="パス 4" d="M144.906,156.753a12.979,12.979,0,0,0-1.552-3.675c-.686-.915-1.03-1.219-3.313-1.219h-3.035V170.72c0,3.246.369,3.553,3.979,3.816v1.342H128.4v-1.342c3.479-.263,3.821-.557,3.821-3.816V151.859h-2.833c-2.206,0-2.839.315-3.565,1.349a15.775,15.775,0,0,0-1.513,3.571h-1.394c.263-2.726.527-5.609.62-7.623h1.092c.595.926,1.056.963,2.217.963h15.8a2.383,2.383,0,0,0,2.2-.963h1.081c.025,1.734.184,5,.382,7.478Z" transform="translate(-42.558 -51.644)" fill="#1a1311"/>
    <path id="パス_5" data-name="パス 5" d="M166.513,176.387v-1.342c3.095-.3,3.437-.515,3.437-3.857v-15.32c0-3.356-.369-3.618-3.437-3.9v-1.342h11.675v1.342c-3.082.305-3.451.541-3.451,3.9v15.32c0,3.332.343,3.527,3.451,3.857v1.342Z" transform="translate(-57.654 -52.154)" fill="#1a1311"/>
    <path id="パス_6" data-name="パス 6" d="M233.547,176.652c-.336,0-.8-.014-1.287-.054-4.283-.224-5.777-1.183-7.161-3.124-1.543-2.124-2.79-4.569-4.109-6.822-.664-1.14-1.2-1.377-2.736-1.377l-1-.026v5.939c0,3.266.411,3.515,3.452,3.857v1.342H209.12v-1.342c3.109-.33,3.437-.592,3.437-3.857v-15.4c0-3.213-.41-3.538-3.437-3.818v-1.341h11.007c3.3,0,5.3.382,6.881,1.451a6,6,0,0,1,2.669,5.256c0,3.485-2.282,5.445-5.008,6.559.636,1.2,2.237,3.806,3.426,5.616a33.118,33.118,0,0,0,3.053,4.106,5.177,5.177,0,0,0,2.635,1.772Zm-14.932-12.93a6.021,6.021,0,0,0,4.05-1.073,5.6,5.6,0,0,0,1.972-4.719c0-4.215-2.556-5.734-5.065-5.734a2.985,2.985,0,0,0-1.921.4c-.305.252-.4.7-.4,1.575v9.555Z" transform="translate(-72.406 -52.154)" fill="#beaf60"/>
    <path id="パス_7" data-name="パス 7" d="M263.642,176.793c-2.459,3.427-5.49,4.179-7.015,4.179-5.144,0-8.128-3.938-8.128-8.6a10.337,10.337,0,0,1,2.833-7.064,8.6,8.6,0,0,1,6.085-2.815,6.386,6.386,0,0,1,6.371,6.348c-.014.715-.081,1.278-.613,1.411-.766.184-6.173.49-10.323.649.061,4.589,2.719,6.742,5.558,6.742a6.774,6.774,0,0,0,4.545-1.867Zm-7.074-12.715c-1.668,0-3.168,1.807-3.517,4.965,1.833-.025,3.588-.052,5.489-.118.611-.026.848-.146.848-.793.039-2.023-1.038-4.054-2.82-4.054" transform="translate(-86.04 -56.262)" fill="#beaf60"/>
    <path id="パス_8" data-name="パス 8" d="M313.6,157.027a10.891,10.891,0,0,0-1.564-3.449c-.8-1.037-1.347-1.252-3.361-1.252h-3.415c-1.279,0-1.423.094-1.423,1.372v8.819h4.476c2.519,0,2.794-.552,3.388-3.327h1.369v8.617h-1.408c-.464-2.722-.947-3.381-3.349-3.381h-4.476v6.5c0,3.577.294,3.813,3.874,4.077v1.341h-12.1V175c3.081-.263,3.437-.515,3.437-4.077v-14.97c0-3.5-.371-3.761-3.437-4.027v-1.342h13.128c3.463,0,5.223-.039,5.87-.079.041.938.224,4.123.422,6.309Z" transform="translate(-102.352 -52.112)" fill="#1a1311"/>
    <path id="パス_9" data-name="パス 9" d="M332.156,176.387v-1.342c3.095-.3,3.437-.515,3.437-3.857v-15.32c0-3.356-.369-3.618-3.437-3.9v-1.342h11.675v1.342c-3.082.305-3.451.541-3.451,3.9v15.32c0,3.332.343,3.527,3.451,3.857v1.342Z" transform="translate(-115.006 -52.154)" fill="#1a1311"/>
    <path id="パス_10" data-name="パス 10" d="M384.616,151.971c-2.459.3-3.239.777-3.358,2.575-.091,1.448-.2,2.906-.2,6.437V176.8h-1.97l-16.677-20.132v9.289c0,3.488.093,5.117.2,6.266.13,1.841,1.018,2.641,3.923,2.828v1.341h-9.759v-1.341c2.329-.2,3.305-.792,3.515-2.683a58.965,58.965,0,0,0,.224-6.425V156.3a4.273,4.273,0,0,0-.818-3c-.728-.99-1.638-1.151-3.4-1.323v-1.342h7.1L379.1,169.016v-8.034c0-3.531-.054-4.977-.172-6.346-.119-1.731-.85-2.467-4.1-2.665v-1.342h9.788Z" transform="translate(-123.366 -52.154)" fill="#1a1311"/>
    <path id="パス_11" data-name="パス 11" d="M425.5,169.761c-.212,1.055-1.308,5.446-1.679,6.584H403.715v-1.316c3.634-.329,3.886-.582,3.886-3.883V155.828c0-3.424-.462-3.649-3.254-3.9v-1.341h12.616c4.008,0,5.451-.04,5.977-.08.041.811.224,3.964.383,6.3l-1.421.2a10.451,10.451,0,0,0-1.523-3.449c-.686-.973-1.34-1.225-3.486-1.225H413.9c-1.408,0-1.538.094-1.538,1.372v8.449h4.064c2.482,0,2.81-.594,3.362-3.366h1.435v8.6h-1.435c-.592-2.9-.91-3.353-3.4-3.353h-4.023v7.191c0,2.748.356,3.373,2.646,3.412h3.119c2.288,0,2.813-.3,3.685-1.361a17.432,17.432,0,0,0,2.32-3.852Z" transform="translate(-139.783 -52.112)" fill="#1a1311"/>
    <path id="パス_12" data-name="パス 12" d="M308.338,106.8a6.6,6.6,0,1,0-9.285-.99,6.6,6.6,0,0,0,9.285.99" transform="translate(-103.037 -32.912)" fill="#beaf60"/>
    <path id="パス_13" data-name="パス 13" d="M131.341,11.741a6.6,6.6,0,1,0-9.285-.991,6.6,6.6,0,0,0,9.285.991" transform="translate(-41.753 0)" fill="#beaf60"/>
    <path id="パス_14" data-name="パス 14" d="M238.533,34.219a3.086,3.086,0,1,0-4.34-.463,3.085,3.085,0,0,0,4.34.463" transform="translate(-80.85 -9.948)" fill="#beaf60"/>
    <path id="パス_15" data-name="パス 15" d="M381.9,83.021a3.086,3.086,0,1,0-4.34-.463,3.085,3.085,0,0,0,4.34.463" transform="translate(-130.491 -26.845)" fill="#beaf60"/>
    <path id="パス_16" data-name="パス 16" d="M46.837,83.021a3.086,3.086,0,1,0-4.34-.463,3.085,3.085,0,0,0,4.34.463" transform="translate(-14.477 -26.845)" fill="#beaf60"/>
    <path id="パス_17" data-name="パス 17" d="M408.013,11.591a3.086,3.086,0,1,0-4.34-.464,3.086,3.086,0,0,0,4.34.464" transform="translate(-139.531 -2.113)" fill="#beaf60"/>
    <path id="パス_18" data-name="パス 18" d="M14.151,11.591a3.086,3.086,0,1,0-4.34-.464,3.086,3.086,0,0,0,4.34.464" transform="translate(-3.16 -2.113)" fill="#beaf60"/>
    <path id="パス_19" data-name="パス 19" d="M131.241,106.512a4.881,4.881,0,1,0-6.863-.733,4.881,4.881,0,0,0,6.863.733" transform="translate(-42.69 -33.874)" fill="#beaf60"/>
    <path id="パス_20" data-name="パス 20" d="M163.146,104.312a3.881,3.881,0,1,0-5.458-.582,3.88,3.88,0,0,0,5.458.582" transform="translate(-54.3 -33.728)" fill="#beaf60"/>
    <path id="パス_21" data-name="パス 21" d="M307.749,10.227a3.881,3.881,0,1,0-5.457-.582,3.881,3.881,0,0,0,5.457.582" transform="translate(-104.368 -1.152)" fill="#beaf60"/>
    <path id="パス_22" data-name="パス 22" d="M334.991,87.281a5.007,5.007,0,1,0-7.041-.751,5.008,5.008,0,0,0,7.041.751" transform="translate(-113.165 -27.137)" fill="#beaf60"/>
    <path id="パス_23" data-name="パス 23" d="M241.4,84.552a5.007,5.007,0,1,0-7.041-.751,5.008,5.008,0,0,0,7.041.751" transform="translate(-80.761 -26.193)" fill="#beaf60"/>
    <path id="パス_24" data-name="パス 24" d="M97.432,83.65a2.5,2.5,0,1,0-3.519-.376,2.5,2.5,0,0,0,3.519.376" transform="translate(-32.324 -27.423)" fill="#beaf60"/>
    <path id="パス_25" data-name="パス 25" d="M381.539,31.181a5.007,5.007,0,1,0-7.041-.751,5.006,5.006,0,0,0,7.041.751" transform="translate(-129.282 -7.714)" fill="#beaf60"/>
    <path id="パス_26" data-name="パス 26" d="M44.088,31.181a5.007,5.007,0,1,0-7.041-.751,5.006,5.006,0,0,0,7.041.751" transform="translate(-12.442 -7.714)" fill="#beaf60"/>
    <path id="パス_27" data-name="パス 27" d="M189.119,31.261a3.3,3.3,0,1,0-4.638-.495,3.3,3.3,0,0,0,4.638.495" transform="translate(-63.621 -8.793)" fill="#beaf60"/>
    <path id="パス_28" data-name="パス 28" d="M189.082,85.043a2.875,2.875,0,1,0-4.043-.431,2.876,2.876,0,0,0,4.043.431" transform="translate(-63.847 -27.675)" fill="#beaf60"/>
    <path id="パス_29" data-name="パス 29" d="M97.559,33.148a3.3,3.3,0,1,0-4.638-.495,3.3,3.3,0,0,0,4.638.495" transform="translate(-31.919 -9.446)" fill="#beaf60"/>
    <path id="パス_30" data-name="パス 30" d="M332.218,28.388a4.981,4.981,0,1,0-7.005-.747,4.98,4.98,0,0,0,7.005.747" transform="translate(-112.219 -6.762)" fill="#beaf60"/>
    <path id="パス_31" data-name="パス 31" d="M273.673,10.344a3.3,3.3,0,1,0-4.639-.494,3.3,3.3,0,0,0,4.639.494" transform="translate(-92.897 -1.551)" fill="#beaf60"/>
    <path id="パス_32" data-name="パス 32" d="M407.213,100.219a3.3,3.3,0,1,0-4.638-.494,3.3,3.3,0,0,0,4.638.494" transform="translate(-139.134 -32.669)" fill="#beaf60"/>
    <path id="パス_33" data-name="パス 33" d="M25.9,100.219a3.3,3.3,0,1,0-4.638-.494,3.3,3.3,0,0,0,4.638.494" transform="translate(-7.109 -32.669)" fill="#beaf60"/>
    <path id="パス_34" data-name="パス 34" d="M273.592,106.687a5.988,5.988,0,1,0-8.42-.9,5.987,5.987,0,0,0,8.42.9" transform="translate(-91.353 -33.253)" fill="#beaf60"/>
    <path id="パス_35" data-name="パス 35" d="M164.482,14.4a4.691,4.691,0,1,0-6.6-.7,4.691,4.691,0,0,0,6.6.7" transform="translate(-54.306 -2.098)" fill="#beaf60"/>
  </g>
</svg>
