<svg xmlns="http://www.w3.org/2000/svg" width="285.72" height="125.714" viewBox="0 0 285.72 125.714">
  <g id="グループ_30" data-name="グループ 30" transform="translate(-817 -477.495)">
    <g id="パス_1" data-name="パス 1" transform="translate(817 426.14)" fill="#1a1311">
      <path d="M 14.79521179199219 176.1883850097656 C 10.22439098358154 176.1883850097656 6.461721420288086 174.8069152832031 3.913991451263428 172.1933288574219 C 1.712451338768005 169.9348754882812 0.5000013709068298 166.8487396240234 0.5000013709068298 163.50341796875 C 0.5000013709068298 155.5946807861328 6.531181335449219 150.281005859375 15.50781154632568 150.281005859375 C 18.06460189819336 150.281005859375 20.40254211425781 150.7376098632812 21.79941177368164 151.0104064941406 C 22.08025932312012 151.0652618408203 22.32623863220215 151.1132965087891 22.53840065002441 151.1511688232422 C 22.70511817932129 152.7999877929688 22.93587112426758 155.0309753417969 23.18377685546875 156.7163848876953 L 22.64288902282715 156.8192291259766 C 21.7815990447998 153.9904479980469 20.55690002441406 152.4753875732422 18.48619651794434 151.6417388916016 C 17.35451889038086 151.153076171875 15.73590278625488 150.9788208007812 14.5971212387085 150.9788208007812 C 8.668571472167969 150.9788208007812 4.985691547393799 155.4392852783203 4.985691547393799 162.6195373535156 C 4.985691547393799 170.2786254882812 9.03844165802002 175.4245758056641 15.07044124603271 175.4245758056641 C 18.65563774108887 175.4245758056641 20.94174385070801 173.7682342529297 23.12561416625977 169.5448760986328 L 23.66850662231445 169.7490844726562 C 23.11203575134277 171.6221313476562 22.26744270324707 174.0083160400391 21.71945190429688 175.2520599365234 C 20.47025680541992 175.5325775146484 17.54874610900879 176.1883850097656 14.79521179199219 176.1883850097656 Z" stroke="none"/>
      <path d="M 12.20306396484375 175.5260314941406 C 7.488133430480957 174.1490020751953 4.485691547393799 169.3060455322266 4.485691547393799 162.6195373535156 C 4.485691547393799 157.3199615478516 6.534744739532471 153.3680114746094 9.967242240905762 151.5632629394531 C 8.03235912322998 152.1584777832031 6.334444999694824 153.0874938964844 4.93472146987915 154.3297882080078 C 2.360601425170898 156.6143798828125 1.000001311302185 159.7865753173828 1.000001311302185 163.50341796875 C 1.000001311302185 166.7175903320312 2.162031412124634 169.6797790527344 4.272031307220459 171.8443145751953 C 6.2270188331604 173.8498382568359 8.937246322631836 175.1013793945312 12.20306396484375 175.5260314941406 M 18.11685180664062 175.4269866943359 C 19.44360160827637 175.2376861572266 20.61293029785156 174.9867095947266 21.36150360107422 174.8198394775391 C 21.71969223022461 173.9735717773438 22.18008804321289 172.7205963134766 22.60079956054688 171.462890625 C 21.28512001037598 173.5141296386719 19.85183143615723 174.7891998291016 18.11685180664062 175.4269866943359 M 22.43411827087402 154.8436431884766 C 22.30139923095703 153.7303924560547 22.18000984191895 152.5693511962891 22.0787239074707 151.5740203857422 C 21.96110343933105 151.5514373779297 21.83615493774414 151.5270233154297 21.70357131958008 151.5011291503906 C 20.72051811218262 151.3091583251953 19.40096855163574 151.0514526367188 17.88340759277344 150.9020843505859 C 18.16335296630859 150.9815368652344 18.43119239807129 151.0737609863281 18.67823600769043 151.1800537109375 C 20.39823150634766 151.8737640380859 21.57053184509277 152.9916076660156 22.43411827087402 154.8436431884766 M 14.79521179199219 176.6883850097656 C 4.550811290740967 176.6883850097656 1.355895960841735e-06 170.0272521972656 1.355895960841735e-06 163.50341796875 C 1.355895960841735e-06 155.3425140380859 6.219861507415771 149.781005859375 15.50781154632568 149.781005859375 C 18.94200134277344 149.781005859375 21.89634132385254 150.5714111328125 22.99727058410645 150.718505859375 C 23.18228149414062 152.5529479980469 23.45882225036621 155.2915344238281 23.75105094909668 157.1174621582031 L 22.28990173339844 157.3953247070312 C 21.47139167785645 154.4566955566406 20.36589050292969 152.9353942871094 18.29347229003906 152.1031494140625 C 17.3148021697998 151.6788787841797 15.81834125518799 151.4788208007812 14.5971212387085 151.4788208007812 C 8.573390960693359 151.4788208007812 5.485691547393799 156.2878723144531 5.485691547393799 162.6195373535156 C 5.485691547393799 170.0109100341797 9.293831825256348 174.9245758056641 15.07044124603271 174.9245758056641 C 18.64781188964844 174.9245758056641 20.78495216369629 173.1398315429688 22.88221168518066 168.9191284179688 L 24.27798080444336 169.4441223144531 C 23.72229194641113 171.3975524902344 22.69196128845215 174.3531799316406 22.07220077514648 175.6855163574219 C 21.00003051757812 175.9228668212891 17.80577087402344 176.6883850097656 14.79521179199219 176.6883850097656 Z" stroke="none" fill="#1a1311"/>
    </g>
    <g id="パス_2" data-name="パス 2" transform="translate(801.906 425.846)" fill="#1a1311">
      <path d="M 57.33961868286133 176.4676513671875 C 55.41073989868164 176.4676513671875 52.70447158813477 176.1435546875 50.76573181152344 174.5995483398438 L 50.76150131225586 174.59619140625 L 50.75719833374023 174.5929107666016 C 49.61616897583008 173.7238311767578 48.84207153320312 172.7174072265625 48.32104873657227 171.4256439208984 C 47.77193832397461 170.0642547607422 47.50500869750977 168.3494415283203 47.50500869750977 166.1832275390625 L 47.50500869750977 156.1297149658203 C 47.50500869750977 154.1907653808594 47.40419006347656 153.149169921875 46.83126831054688 152.4740600585938 C 46.28130340576172 151.8260040283203 45.41408157348633 151.6489410400391 44.09500122070312 151.5157470703125 L 44.09500122070312 151.1289978027344 L 54.70183181762695 151.1289978027344 L 54.70183181762695 151.5121002197266 C 53.42900466918945 151.6315002441406 52.53535842895508 151.8093109130859 51.98548889160156 152.4657287597656 C 51.41675186157227 153.1446380615234 51.31666946411133 154.1881408691406 51.31666946411133 156.1297149658203 L 51.31666946411133 166.4479827880859 C 51.31666946411133 171.7237701416016 54.04383087158203 174.8735046386719 58.61183166503906 174.8735046386719 C 63.65753936767578 174.8735046386719 66.11031341552734 171.5527191162109 66.11031341552734 164.7214050292969 L 66.11031341552734 160.0862579345703 C 66.11031341552734 157.2562255859375 66.00623321533203 155.7636871337891 65.93023681640625 154.6738739013672 L 65.91107177734375 154.3971405029297 L 65.91085815429688 154.3941040039062 L 65.91060638427734 154.3910675048828 C 65.82337951660156 153.3086700439453 65.42701721191406 152.5966796875 64.66325378417969 152.150390625 C 64.06185913085938 151.7989807128906 63.2425537109375 151.6044769287109 61.89749908447266 151.5022430419922 L 61.89749908447266 151.1289978027344 L 70.61431884765625 151.1289978027344 L 70.61431884765625 151.5178527832031 C 69.49521636962891 151.6492309570312 68.74237060546875 151.8985595703125 68.20757293701172 152.3091125488281 C 67.41634368896484 152.91650390625 67.25702667236328 153.8024444580078 67.20603179931641 154.4160003662109 C 67.11653137207031 155.4836578369141 67.03368377685547 156.9098205566406 67.03368377685547 160.0862579345703 L 67.03368377685547 164.9587249755859 C 67.03368377685547 166.996337890625 66.86490631103516 168.5880432128906 66.50254821777344 169.9678955078125 C 66.07573699951172 171.5931854248047 65.37876129150391 172.8985290527344 64.37178039550781 173.9585113525391 C 63.55802917480469 174.8070068359375 62.50152969360352 175.4540100097656 61.23328018188477 175.8798370361328 C 60.07162857055664 176.2698822021484 58.76161193847656 176.4676513671875 57.33961868286133 176.4676513671875 Z" stroke="none"/>
      <path d="M 46.57262420654297 151.6289978027344 C 47.73832702636719 152.2773590087891 48.00499725341797 153.5260925292969 48.00499725341797 156.1297149658203 L 48.00499725341797 166.1832275390625 C 48.00499725341797 168.2841491699219 48.26006317138672 169.9377746582031 48.78473663330078 171.2386169433594 C 49.27069091796875 172.4434204101562 49.99372100830078 173.3828735351562 51.0601692199707 174.1951599121094 L 51.07720947265625 174.2084350585938 C 52.90296173095703 175.6624450683594 55.49047088623047 175.9676513671875 57.33961868286133 175.9676513671875 C 60.1850700378418 175.9676513671875 62.55490112304688 175.1305999755859 64.00927734375 173.6141357421875 C 64.95671844482422 172.6168212890625 65.61408996582031 171.3825836181641 66.01895141601562 169.8409118652344 C 66.08211517333984 169.6003723144531 66.13920593261719 169.3529205322266 66.19036865234375 169.0972137451172 C 65.89448547363281 170.4180908203125 65.44084167480469 171.5201873779297 64.82487487792969 172.4231109619141 C 63.48933029174805 174.3808441162109 61.39896011352539 175.3735046386719 58.61183166503906 175.3735046386719 C 53.73075103759766 175.3735046386719 50.81666946411133 172.036865234375 50.81666946411133 166.4479827880859 L 50.81666946411133 156.1297149658203 C 50.81666946411133 154.3453826904297 50.87302017211914 153.0150909423828 51.60219955444336 152.1446380615234 C 51.77806854248047 151.9346923828125 51.97632217407227 151.7660064697266 52.19857025146484 151.6289978027344 L 46.57262420654297 151.6289978027344 M 64.75220489501953 151.6289978027344 C 64.80805969238281 151.6577911376953 64.86248016357422 151.6877136230469 64.91551208496094 151.7186889648438 C 65.82032775878906 152.2474060058594 66.30886077880859 153.1084136962891 66.40899658203125 154.3509216308594 L 66.40989685058594 154.3630218505859 L 66.42903137207031 154.6390991210938 C 66.47355651855469 155.2776641845703 66.52765655517578 156.0534973144531 66.56510925292969 157.1519775390625 C 66.59758758544922 155.8599090576172 66.6513671875 155.0470886230469 66.70774841308594 154.3745727539062 C 66.82769775390625 152.9315490722656 67.45452880859375 152.1088256835938 68.33592987060547 151.6289978027344 L 64.75220489501953 151.6289978027344 M 43.59500122070312 150.6289978027344 L 55.20183181762695 150.6289978027344 L 55.20183181762695 151.9705047607422 C 52.16054916381836 152.2195739746094 51.81666946411133 152.5118255615234 51.81666946411133 156.1297149658203 L 51.81666946411133 166.4479827880859 C 51.81666946411133 171.3583679199219 54.19112014770508 174.3735046386719 58.61183166503906 174.3735046386719 C 63.64577102661133 174.3735046386719 65.61030578613281 170.8870086669922 65.61030578613281 164.7214050292969 L 65.61030578613281 160.0862579345703 C 65.61030578613281 157.033203125 65.49067687988281 155.5785980224609 65.4122314453125 154.4312438964844 C 65.26644134521484 152.622314453125 64.22631072998047 152.1293640136719 61.39749908447266 151.9705047607422 L 61.39749908447266 150.6289978027344 L 71.11431884765625 150.6289978027344 L 71.11431884765625 151.9705047607422 C 68.59146881103516 152.1803283691406 67.83441162109375 152.8923034667969 67.70431518554688 154.4574127197266 C 67.61277770996094 155.5491790771484 67.53367614746094 157.0077209472656 67.53367614746094 160.0862579345703 L 67.53367614746094 164.9587249755859 C 67.53367614746094 168.5883941650391 67.00674438476562 171.9107971191406 64.73428344726562 174.3028869628906 C 62.89656829833984 176.2190704345703 60.12528991699219 176.9676513671875 57.33961868286133 176.9676513671875 C 54.83572006225586 176.9676513671875 52.27495193481445 176.440673828125 50.45423889160156 174.9906768798828 C 48.12815856933594 173.2189636230469 47.00499725341797 170.6902160644531 47.00499725341797 166.1832275390625 L 47.00499725341797 156.1297149658203 C 47.00499725341797 152.5118255615234 46.66178131103516 152.2483367919922 43.59500122070312 151.9705047607422 L 43.59500122070312 150.6289978027344 Z" stroke="none" fill="#1a1311"/>
    </g>
    <g id="パス_3" data-name="パス 3" transform="translate(785.689 425.846)" fill="#1a1311">
      <path d="M 109.2891082763672 175.8870697021484 L 90.93099975585938 175.8870697021484 L 90.93099975585938 175.5061492919922 C 92.43904113769531 175.3759460449219 93.42420196533203 175.2124938964844 94.02858734130859 174.6141815185547 C 94.72434997558594 173.9253997802734 94.77639770507812 172.8048706054688 94.77639770507812 171.1739807128906 L 94.77639770507812 155.8538208007812 C 94.77639770507812 152.5061187744141 94.31328582763672 151.8285217285156 91.33894348144531 151.5160522460938 L 91.33894348144531 151.1289978027344 L 102.0928573608398 151.1289978027344 L 102.0928573608398 151.5168762207031 C 100.7480087280273 151.6548767089844 99.86351013183594 151.8254852294922 99.297119140625 152.4174194335938 C 98.67671966552734 153.0658264160156 98.56322479248047 154.0833892822266 98.56322479248047 155.8538208007812 L 98.56322479248047 171.4930419921875 C 98.56322479248047 173.7097473144531 98.70016479492188 175.0740814208984 101.3933944702148 175.1336517333984 C 101.5264739990234 175.1475372314453 101.8144989013672 175.1541290283203 102.5998916625977 175.1632385253906 C 103.1745376586914 175.169921875 103.7747344970703 175.173583984375 103.8689880371094 175.173583984375 C 106.1222381591797 175.173583984375 106.8642501831055 174.7751159667969 107.9419479370117 173.5784149169922 C 108.7097244262695 172.7723846435547 109.6032638549805 171.3267517089844 110.3240737915039 169.7364044189453 L 110.8715209960938 169.9000244140625 C 110.5238952636719 171.4973754882812 109.683967590332 174.5895538330078 109.2891082763672 175.8870697021484 Z" stroke="none"/>
      <path d="M 108.9167938232422 175.3870697021484 C 109.1977691650391 174.4318542480469 109.6169815063477 172.9044189453125 109.9583206176758 171.5630645751953 C 109.4613952636719 172.4480285644531 108.8893737792969 173.3072357177734 108.3090667724609 173.9179382324219 C 107.6598510742188 174.6381683349609 107.0947113037109 175.114501953125 106.2517776489258 175.3870697021484 L 108.9167938232422 175.3870697021484 M 99.79949951171875 175.3870697021484 C 99.32342529296875 175.2141723632812 98.88813018798828 174.9229888916016 98.57685852050781 174.4339141845703 C 98.10104370117188 173.686279296875 98.06322479248047 172.7020416259766 98.06322479248047 171.4930419921875 L 98.06322479248047 155.8538208007812 C 98.06322479248047 154.2276611328125 98.12747955322266 152.9166107177734 98.93585968017578 152.0717620849609 C 99.10564422607422 151.8943176269531 99.29344940185547 151.7491912841797 99.50241088867188 151.6289978027344 L 93.87457275390625 151.6289978027344 C 94.08094787597656 151.7516784667969 94.26686859130859 151.8999481201172 94.43370819091797 152.0809631347656 C 95.21434783935547 152.9279022216797 95.27639770507812 154.2341613769531 95.27639770507812 155.8538208007812 L 95.27639770507812 171.1739807128906 C 95.27639770507812 172.9308624267578 95.21402740478516 174.1442108154297 94.38034820556641 174.9695129394531 C 94.21282196044922 175.1353607177734 94.0263671875 175.2724914550781 93.81837463378906 175.3870697021484 L 99.79949951171875 175.3870697021484 M 109.6560821533203 176.3870697021484 L 90.43099975585938 176.3870697021484 L 90.43099975585938 175.0455780029297 C 93.95932769775391 174.7664184570312 94.27639770507812 174.517333984375 94.27639770507812 171.1739807128906 L 94.27639770507812 155.8538208007812 C 94.27639770507812 152.5118255615234 93.88088989257812 152.236572265625 90.83894348144531 151.9705047607422 L 90.83894348144531 150.6289978027344 L 102.5928573608398 150.6289978027344 L 102.5928573608398 151.9705047607422 C 99.47379302978516 152.2627258300781 99.06322479248047 152.4974212646484 99.06322479248047 155.8538208007812 L 99.06322479248047 171.4930419921875 C 99.06322479248047 173.7557067871094 99.22599792480469 174.5938110351562 101.4330978393555 174.6343536376953 C 101.499137878418 174.6591796875 103.6820297241211 174.673583984375 103.8689880371094 174.673583984375 C 106.0440673828125 174.673583984375 106.6376800537109 174.2806701660156 107.5751495361328 173.2385559082031 C 108.4119720458984 172.3625335693359 109.3730010986328 170.70068359375 110.0444183349609 169.1309814453125 L 111.4532623291016 169.5520324707031 C 111.1636276245117 171.0883636474609 110.0260925292969 175.261962890625 109.6560821533203 176.3870697021484 Z" stroke="none" fill="#1a1311"/>
    </g>
    <g id="パス_4" data-name="パス 4" transform="translate(774.442 426.356)" fill="#1a1311">
      <path d="M 140.4855194091797 175.3771057128906 L 128.8973693847656 175.3771057128906 L 128.8973693847656 174.9975128173828 C 130.342529296875 174.8761138916016 131.3531799316406 174.7096710205078 131.9639892578125 174.1067352294922 C 132.6644744873047 173.4152679443359 132.7186126708984 172.2666931152344 132.7186126708984 170.7195739746094 L 132.7186126708984 151.8586120605469 L 132.7186126708984 151.3586120605469 L 132.2186126708984 151.3586120605469 L 129.3858489990234 151.3586120605469 C 127.1271514892578 151.3586120605469 126.2729034423828 151.6943817138672 125.4117279052734 152.920654296875 L 125.4101791381836 152.9228668212891 L 125.4086532592773 152.9250793457031 C 124.895637512207 153.6726379394531 124.4474792480469 154.8087615966797 123.9482116699219 156.27880859375 L 123.4634399414062 156.27880859375 C 123.682502746582 153.9918060302734 123.9051208496094 151.5226135253906 124.0080108642578 149.656005859375 L 124.3614807128906 149.656005859375 C 125.0364761352539 150.5732727050781 125.7005157470703 150.6190032958984 126.8414306640625 150.6190032958984 L 142.6368865966797 150.6190032958984 C 143.7813873291016 150.6190032958984 144.3831176757812 150.3891448974609 145.0624237060547 149.656005859375 L 145.4286651611328 149.656005859375 C 145.4681701660156 151.2748718261719 145.5932769775391 153.9037170410156 145.7637786865234 156.1781005859375 L 145.2800598144531 156.2191467285156 C 144.8749237060547 154.8127288818359 144.2321472167969 153.4877319335938 143.7689666748047 152.7988891601562 L 143.7618560791016 152.7882995605469 L 143.7541961669922 152.7780914306641 C 142.9172821044922 151.6611022949219 142.3608856201172 151.3586120605469 140.0414886474609 151.3586120605469 L 137.0067291259766 151.3586120605469 L 136.5067291259766 151.3586120605469 L 136.5067291259766 151.8586120605469 L 136.5067291259766 170.7195739746094 C 136.5067291259766 172.2645568847656 136.5635070800781 173.4120178222656 137.2983093261719 174.1088104248047 C 137.8907928466797 174.6706390380859 138.7864379882812 174.8581085205078 140.4855194091797 174.9983825683594 L 140.4855194091797 175.3771057128906 Z" stroke="none"/>
      <path d="M 144.95166015625 150.4429473876953 C 144.32861328125 150.9369506835938 143.6547241210938 151.1190032958984 142.6369018554688 151.1190032958984 L 142.455078125 151.1190032958984 C 143.1890411376953 151.3585510253906 143.6341857910156 151.7840728759766 144.1543426513672 152.478271484375 L 144.1838989257812 152.5198974609375 C 144.4170227050781 152.8666229248047 144.7820129394531 153.5097045898438 145.1388549804688 154.3406524658203 C 145.0543518066406 152.9462127685547 144.9892272949219 151.5547332763672 144.95166015625 150.4429473876953 M 124.4574279785156 150.4995880126953 C 124.3811950683594 151.6500396728516 124.2719421386719 152.9583892822266 124.1521911621094 154.2816772460938 C 124.4236755371094 153.6258087158203 124.697998046875 153.0769653320312 124.9963836669922 152.6421661376953 L 125.0025482177734 152.63330078125 C 125.5583190917969 151.8418884277344 126.1195831298828 151.3738861083984 126.9586334228516 151.1190032958984 L 126.8414306640625 151.1190032958984 C 125.8529663085938 151.1190032958984 125.1184844970703 151.0665130615234 124.4574279785156 150.4995880126953 M 133.2186126708984 151.1190032958984 L 133.2186126708984 170.7195739746094 C 133.2186126708984 172.3890686035156 133.15380859375 173.6348114013672 132.3152465820312 174.4625701904297 C 132.1490173339844 174.6266632080078 131.9632720947266 174.762939453125 131.7569427490234 174.8771057128906 L 137.519775390625 174.8771057128906 C 137.3112182617188 174.7650451660156 137.123046875 174.6316680908203 136.9542541503906 174.4716186523438 C 136.07470703125 173.6375427246094 136.0067291259766 172.3903961181641 136.0067291259766 170.7195739746094 L 136.0067291259766 151.1190032958984 L 133.2186126708984 151.1190032958984 M 123.5327758789062 149.156005859375 L 124.6245422363281 149.156005859375 C 125.2194671630859 150.0817260742188 125.6810150146484 150.1190032958984 126.8414306640625 150.1190032958984 L 142.6369018554688 150.1190032958984 C 143.7208404541016 150.1190032958984 144.1928405761719 149.9091186523438 144.8381042480469 149.156005859375 L 145.9187774658203 149.156005859375 C 145.9442749023438 150.8897705078125 146.1024780273438 154.1553039550781 146.3005676269531 156.6343383789062 L 144.9060974121094 156.752685546875 C 144.4981231689453 155.1241607666016 143.7646331787109 153.6885070800781 143.3540496826172 153.0778961181641 C 142.6683044433594 152.1626586914062 142.3237609863281 151.8586120605469 140.0414886474609 151.8586120605469 L 137.0067291259766 151.8586120605469 L 137.0067291259766 170.7195739746094 C 137.0067291259766 173.9654846191406 137.3754577636719 174.2720947265625 140.9855194091797 174.5355834960938 L 140.9855194091797 175.8771057128906 L 128.3973693847656 175.8771057128906 L 128.3973693847656 174.5355834960938 C 131.8766937255859 174.2720947265625 132.2186126708984 173.9785766601562 132.2186126708984 170.7195739746094 L 132.2186126708984 151.8586120605469 L 129.3858489990234 151.8586120605469 C 127.1800842285156 151.8586120605469 126.5472412109375 152.1737365722656 125.8209075927734 153.2080078125 C 125.2946472167969 153.974853515625 124.8226318359375 155.2359619140625 124.3074645996094 156.77880859375 L 122.9130096435547 156.77880859375 C 123.1764678955078 154.0526580810547 123.4399261474609 151.1695556640625 123.5327758789062 149.156005859375 Z" stroke="none" fill="#1a1311"/>
    </g>
    <g id="パス_5" data-name="パス 5" transform="translate(759.346 425.846)" fill="#1a1311">
      <path d="M 177.6884765625 175.8870697021484 L 167.0130310058594 175.8870697021484 L 167.0130310058594 175.4967041015625 C 168.3365478515625 175.3562469482422 169.2039489746094 175.1925659179688 169.7586059570312 174.595703125 C 170.3469390869141 173.9625854492188 170.4504699707031 172.9923400878906 170.4504699707031 171.187744140625 L 170.4504699707031 155.8682250976562 C 170.4504699707031 154.0549926757812 170.3458709716797 153.0777130126953 169.7513885498047 152.4280853271484 C 169.1974639892578 151.8227691650391 168.2965850830078 151.6465301513672 167.0130310058594 151.5160369873047 L 167.0130310058594 151.1289978027344 L 177.6884765625 151.1289978027344 L 177.6884765625 151.5193328857422 C 176.3631896972656 151.6628265380859 175.4923095703125 151.8379058837891 174.9397277832031 152.4358673095703 C 174.3423767089844 153.082275390625 174.2372741699219 154.0576934814453 174.2372741699219 155.8682250976562 L 174.2372741699219 171.187744140625 C 174.2372741699219 172.9855499267578 174.3412933349609 173.9522399902344 174.9324035644531 174.5835876464844 C 175.4846038818359 175.1733551025391 176.3564300537109 175.3419952392578 177.6884765625 175.4932708740234 L 177.6884765625 175.8870697021484 Z" stroke="none"/>
      <path d="M 175.1559295654297 175.3870697021484 C 174.9373779296875 175.2631988525391 174.7425079345703 175.1123199462891 174.5674133300781 174.9253234863281 C 173.7968292236328 174.102294921875 173.7372741699219 172.8570709228516 173.7372741699219 171.187744140625 L 173.7372741699219 155.8682250976562 C 173.7372741699219 154.1890106201172 173.7971801757812 152.935546875 174.572509765625 152.0965270996094 C 174.7470703125 151.9076232910156 174.9414978027344 151.7546997070312 175.1594848632812 151.6289978027344 L 169.5095520019531 151.6289978027344 C 170.6683502197266 152.2599639892578 170.9504699707031 153.4499664306641 170.9504699707031 155.8682250976562 L 170.9504699707031 171.187744140625 C 170.9504699707031 173.6028594970703 170.6832580566406 174.7669525146484 169.5164794921875 175.3870697021484 L 175.1559295654297 175.3870697021484 M 178.1884765625 176.3870697021484 L 166.5130310058594 176.3870697021484 L 166.5130310058594 175.0449066162109 C 169.60791015625 174.7402648925781 169.9504699707031 174.5297546386719 169.9504699707031 171.187744140625 L 169.9504699707031 155.8682250976562 C 169.9504699707031 152.5118255615234 169.5817565917969 152.2502899169922 166.5130310058594 151.9705047607422 L 166.5130310058594 150.6289978027344 L 178.1884765625 150.6289978027344 L 178.1884765625 151.9705047607422 C 175.1060180664062 152.2758026123047 174.7372741699219 152.5118255615234 174.7372741699219 155.8682250976562 L 174.7372741699219 171.187744140625 C 174.7372741699219 174.519287109375 175.0805206298828 174.7147521972656 178.1884765625 175.0449066162109 L 178.1884765625 176.3870697021484 Z" stroke="none" fill="#1a1311"/>
    </g>
    <g id="パス_6" data-name="パス 6" transform="translate(744.594 425.846)" fill="#beaf60">
      <path d="M 233.1324920654297 176.1459503173828 C 232.8588562011719 176.1377716064453 232.570556640625 176.1221618652344 232.3003845214844 176.1004943847656 L 232.2934875488281 176.0999450683594 L 232.2865600585938 176.0995788574219 C 228.1334686279297 175.8821716308594 226.7911376953125 174.9863128662109 225.5062561035156 173.1842956542969 C 224.4020080566406 171.6640625 223.4378662109375 169.9531707763672 222.5054473876953 168.2986145019531 C 222.1520538330078 167.6714935302734 221.78662109375 167.0230407714844 221.4217224121094 166.3999481201172 C 220.6087493896484 165.0030517578125 219.8233337402344 164.7757873535156 218.2608642578125 164.775146484375 L 217.2664489746094 164.7491760253906 L 216.7533874511719 164.7357788085938 L 216.7533874511719 165.2490081787109 L 216.7533874511719 171.187744140625 C 216.7533874511719 172.9124908447266 216.8649444580078 173.9068145751953 217.4746246337891 174.5550079345703 C 218.0314331054688 175.1469573974609 218.8944091796875 175.3305511474609 220.2052307128906 175.4900512695312 L 220.2052307128906 175.8870697021484 L 209.6199798583984 175.8870697021484 L 209.6199798583984 175.4914093017578 C 212.6275939941406 175.1255340576172 213.0574340820312 174.4933929443359 213.0574340820312 171.187744140625 L 213.0574340820312 155.7877960205078 C 213.0574340820312 152.5469512939453 212.5619659423828 151.8450164794922 209.6199798583984 151.5179443359375 L 209.6199798583984 151.1289978027344 L 220.1266479492188 151.1289978027344 C 223.4208679199219 151.1289978027344 225.2716674804688 151.5117645263672 226.7278289794922 152.4941711425781 L 226.7299346923828 152.4955902099609 L 226.7320861816406 152.4970092773438 C 228.3309783935547 153.5520629882812 229.1761016845703 155.2253112792969 229.1761016845703 157.3359069824219 C 229.1761016845703 158.8305358886719 228.7179260253906 160.1237030029297 227.8143310546875 161.1794738769531 C 227.0374908447266 162.0871276855469 225.9151916503906 162.8448333740234 224.4786071777344 163.4315185546875 L 223.9676208496094 163.6402130126953 L 224.2256469726562 164.1281433105469 C 224.9023284912109 165.4077606201172 226.5435638427734 168.0606384277344 227.6761169433594 169.7847137451172 C 229.0924835205078 171.9390869140625 229.9384613037109 173.0072021484375 230.7729644775391 173.9482116699219 C 231.6290283203125 174.8974761962891 232.2478179931641 175.3575897216797 233.2116088867188 175.7197723388672 L 233.1324920654297 176.1459503173828 Z M 217.3209991455078 152.2168426513672 C 216.8487701416016 152.6158599853516 216.7533874511719 153.2598114013672 216.7533874511719 154.1671295166016 L 216.7533874511719 163.7224426269531 L 216.7533874511719 164.2224426269531 L 217.2533874511719 164.2224426269531 L 218.6151733398438 164.2224426269531 C 220.6705322265625 164.2224426269531 222.0184936523438 163.8560638427734 222.9844207763672 163.0345458984375 C 224.4533386230469 161.8456115722656 225.1376190185547 160.2236175537109 225.1376190185547 157.9308166503906 C 225.1376190185547 153.3343963623047 222.2627258300781 151.6966857910156 219.572265625 151.6966857910156 C 218.4250335693359 151.6966857910156 217.7087554931641 151.8620452880859 217.3209991455078 152.2168426513672 Z" stroke="none"/>
      <path d="M 231.8173980712891 175.5700225830078 C 231.3482208251953 175.2529449462891 230.9103393554688 174.8471374511719 230.4044342041016 174.2861785888672 L 230.3988647460938 174.2799530029297 C 229.5500183105469 173.3227691650391 228.6911163330078 172.2387542724609 227.2582244873047 170.0592346191406 C 226.1194000244141 168.3256225585938 224.4671630859375 165.6544342041016 223.7836456298828 164.3618774414062 L 223.2909393310547 163.4301605224609 C 222.5416107177734 164.0611267089844 221.6012268066406 164.4453887939453 220.3489990234375 164.6167297363281 C 220.9181823730469 164.8861846923828 221.3913879394531 165.3537902832031 221.8531799316406 166.1472625732422 C 222.2201690673828 166.7739410400391 222.5866394042969 167.4242401123047 222.9410552978516 168.0531311035156 C 223.8665008544922 169.6953582763672 224.8234710693359 171.3934936523438 225.9082183837891 172.8868713378906 L 225.9133605957031 172.8940124511719 C 226.5915374755859 173.8451232910156 227.2016143798828 174.3904113769531 228.0191650390625 174.776123046875 C 228.9095458984375 175.1961975097656 230.1246795654297 175.4510498046875 231.8173980712891 175.5700225830078 M 217.7711181640625 175.3870697021484 C 216.6095581054688 174.7842712402344 216.2533874511719 173.6466674804688 216.2533874511719 171.187744140625 L 216.2533874511719 154.1671295166016 C 216.2533874511719 153.3079223632812 216.310791015625 152.4215087890625 216.9907684326172 151.84130859375 C 217.0772552490234 151.7630004882812 217.1732025146484 151.6923217773438 217.2796325683594 151.6289978027344 L 212.0901947021484 151.6289978027344 C 213.2571411132812 152.25927734375 213.5574340820312 153.4363708496094 213.5574340820312 155.7877960205078 L 213.5574340820312 171.187744140625 C 213.5574340820312 172.8347778320312 213.4989776611328 174.0645599365234 212.7424011230469 174.8919219970703 C 212.5581817626953 175.0933837890625 212.3480224609375 175.2550506591797 212.1100616455078 175.3870697021484 L 217.7711181640625 175.3870697021484 M 223.4179534912109 163.3246002197266 L 224.2895660400391 162.9686431884766 C 227.2412567138672 161.76318359375 228.6761016845703 159.9207000732422 228.6761016845703 157.3359069824219 C 228.6761016845703 155.4013824462891 227.9086456298828 153.8724212646484 226.4566955566406 152.9143371582031 L 226.4481811523438 152.9086608886719 C 225.3866424560547 152.1924743652344 224.0787811279297 151.8162841796875 222.0519409179688 151.6844177246094 C 224.0007781982422 152.5010986328125 225.6376190185547 154.4125823974609 225.6376190185547 157.9308166503906 C 225.6376190185547 160.2908935546875 224.9111480712891 162.0572967529297 223.4179534912109 163.3246002197266 M 233.5469970703125 176.6524963378906 C 233.2109832763672 176.6524963378906 232.7494354248047 176.6381072998047 232.2604217529297 176.5988922119141 C 227.9769897460938 176.3746643066406 226.4831237792969 175.4155578613281 225.0991363525391 173.4745788574219 C 223.5562744140625 171.3505096435547 222.3095855712891 168.9054565429688 220.9902648925781 166.6526184082031 C 220.3267059326172 165.512451171875 219.785400390625 165.275146484375 218.2542724609375 165.275146484375 L 217.2533874511719 165.2490081787109 L 217.2533874511719 171.187744140625 C 217.2533874511719 174.4532470703125 217.6639404296875 174.7023468017578 220.7052307128906 175.0449066162109 L 220.7052307128906 176.3870697021484 L 209.1199798583984 176.3870697021484 L 209.1199798583984 175.0449066162109 C 212.2285919189453 174.7147521972656 212.5574340820312 174.4532470703125 212.5574340820312 171.187744140625 L 212.5574340820312 155.7877960205078 C 212.5574340820312 152.5752258300781 212.1475219726562 152.2502899169922 209.1199798583984 151.9698486328125 L 209.1199798583984 150.6289978027344 L 220.1266479492188 150.6289978027344 C 223.4313812255859 150.6289978027344 225.424072265625 151.0114288330078 227.0074615478516 152.0796813964844 C 228.6065521240234 153.1348571777344 229.6761016845703 154.8921203613281 229.6761016845703 157.3359069824219 C 229.6761016845703 160.8210754394531 227.3938446044922 162.7810363769531 224.6676483154297 163.8944091796875 C 225.3037719726562 165.0973358154297 226.9048309326172 167.6999206542969 228.0940246582031 169.5101928710938 C 229.5080718994141 171.6610565185547 230.3376922607422 172.7038116455078 231.1470489501953 173.616455078125 C 232.1139678955078 174.6886138916016 232.7167205810547 175.0468597412109 233.7817230224609 175.3881378173828 L 233.5469970703125 176.6524963378906 Z M 219.572265625 152.1966857910156 C 218.4739685058594 152.1966857910156 217.9032135009766 152.3549041748047 217.6515045166016 152.5922546386719 C 217.3462219238281 152.8439178466797 217.2533874511719 153.2924194335938 217.2533874511719 154.1671295166016 L 217.2533874511719 163.7224426269531 L 218.6151733398438 163.7224426269531 C 220.4437255859375 163.7224426269531 221.7505950927734 163.4302368164062 222.6652069091797 162.649658203125 C 224.0557556152344 161.5265045166016 224.6376190185547 159.9934387207031 224.6376190185547 157.9308166503906 C 224.6376190185547 153.7153930664062 222.08203125 152.1966857910156 219.572265625 152.1966857910156 Z" stroke="none" fill="#beaf60"/>
    </g>
    <path id="パス_7" data-name="パス 7" d="M263.642,176.793c-2.459,3.427-5.49,4.179-7.015,4.179-5.144,0-8.128-3.938-8.128-8.6a10.337,10.337,0,0,1,2.833-7.064,8.6,8.6,0,0,1,6.085-2.815,6.386,6.386,0,0,1,6.371,6.348c-.014.715-.081,1.278-.613,1.411-.766.184-6.173.49-10.323.649.061,4.589,2.719,6.742,5.558,6.742a6.774,6.774,0,0,0,4.545-1.867Zm-7.074-12.715c-1.668,0-3.168,1.807-3.517,4.965,1.833-.025,3.588-.052,5.489-.118.611-.026.848-.146.848-.793.039-2.023-1.038-4.054-2.82-4.054" transform="translate(730.96 421.738)" fill="#beaf60" stroke="#beaf60" stroke-width="1"/>
    <g id="パス_8" data-name="パス 8" transform="translate(714.648 425.888)" fill="#1a1311">
      <path d="M 307.206787109375 175.8451843261719 L 296.1089477539062 175.8451843261719 L 296.1089477539062 175.4608001708984 C 297.4337768554688 175.3340911865234 298.3051147460938 175.1632843017578 298.8586730957031 174.5315093994141 C 299.4429931640625 173.8645935058594 299.5458374023438 172.8375854492188 299.5458374023438 170.9261932373047 L 299.5458374023438 155.9557495117188 C 299.5458374023438 152.4475250244141 299.1156921386719 151.7849884033203 296.1089477539062 151.4736633300781 L 296.1089477539062 151.0870971679688 L 308.7371215820312 151.0870971679688 C 311.8475646972656 151.0870971679688 313.3895568847656 151.0557098388672 314.1318969726562 151.0298309326172 C 314.192626953125 152.2009887695312 314.3329772949219 154.5330963134766 314.4903259277344 156.3910064697266 L 313.9468383789062 156.4705657958984 C 313.4892578125 155.042236328125 312.9782409667969 153.9668579101562 312.4255981445312 153.2702789306641 C 311.515380859375 152.0966491699219 310.8128051757812 151.8267211914062 308.6710510253906 151.8267211914062 L 305.255859375 151.8267211914062 C 303.7658386230469 151.8267211914062 303.3326110839844 152.0723266601562 303.3326110839844 153.6983337402344 L 303.3326110839844 162.5175476074219 L 303.3326110839844 163.0175476074219 L 303.8326110839844 163.0175476074219 L 308.3088989257812 163.0175476074219 C 311.0948791503906 163.0175476074219 311.5521240234375 162.1529235839844 312.10009765625 159.6905822753906 L 312.5663146972656 159.6905822753906 L 312.5663146972656 167.3070983886719 L 312.0763244628906 167.3070983886719 C 311.5970153808594 164.781005859375 310.9040832519531 163.9258728027344 308.3088989257812 163.9258728027344 L 303.8326110839844 163.9258728027344 L 303.3326110839844 163.9258728027344 L 303.3326110839844 164.4258728027344 L 303.3326110839844 170.9261932373047 C 303.3326110839844 172.6584167480469 303.3837585449219 173.8468017578125 304.0673828125 174.5543365478516 C 304.6543884277344 175.1618804931641 305.5426330566406 175.3303680419922 307.206787109375 175.4664764404297 L 307.206787109375 175.8451843261719 Z" stroke="none"/>
      <path d="M 313.6588439941406 151.5442199707031 C 312.9853515625 151.5610656738281 312.0876159667969 151.5733032226562 311.0122985839844 151.5802917480469 C 311.7089538574219 151.8073425292969 312.2453308105469 152.2226867675781 312.8186340332031 152.9612121582031 C 313.188720703125 153.4280853271484 313.5389404296875 154.0467529296875 313.8662719726562 154.8103332519531 C 313.7803039550781 153.6120300292969 313.7066650390625 152.4062042236328 313.6588439941406 151.5442199707031 M 298.6453857421875 151.5870971679688 C 298.8608703613281 151.7157287597656 299.0535888671875 151.8724060058594 299.2249755859375 152.0653991699219 C 299.9230041503906 152.8515167236328 300.0458374023438 153.9462127685547 300.0458374023438 155.9557495117188 L 300.0458374023438 170.9261932373047 C 300.0458374023438 172.6881256103516 299.9876403808594 174.001708984375 299.2347412109375 174.8610229492188 C 299.0633239746094 175.0566558837891 298.8699035644531 175.2152404785156 298.6531066894531 175.3451843261719 L 304.3270874023438 175.3451843261719 C 303.0994873046875 174.7095336914062 302.8326110839844 173.4810943603516 302.8326110839844 170.9261932373047 L 302.8326110839844 153.6983337402344 C 302.8326110839844 152.5495300292969 303.0587463378906 151.9055023193359 303.6941833496094 151.5870971679688 L 298.6453857421875 151.5870971679688 M 312.0663146972656 161.6031951904297 C 311.9044189453125 161.9854125976562 311.7089233398438 162.3086700439453 311.4517211914062 162.5810546875 C 310.9107971191406 163.1539306640625 310.2209777832031 163.3905181884766 309.3401794433594 163.4757385253906 C 310.12353515625 163.5657501220703 310.8647155761719 163.8056335449219 311.4357604980469 164.4077453613281 C 311.6984558105469 164.6847381591797 311.9013061523438 165.0089569091797 312.0663146972656 165.3918304443359 L 312.0663146972656 161.6031951904297 M 314.607177734375 150.5079956054688 C 314.647705078125 151.4454956054688 314.8314208984375 154.6312561035156 315.0295715332031 156.8174133300781 L 313.5958251953125 157.0272674560547 C 313.1866149902344 155.6602783203125 312.6642456054688 154.3743133544922 312.0320434570312 153.5786895751953 C 311.2279357910156 152.5411987304688 310.6846313476562 152.3267211914062 308.6710510253906 152.3267211914062 L 305.255859375 152.3267211914062 C 303.9771118164062 152.3267211914062 303.8326110839844 152.4208984375 303.8326110839844 153.6983337402344 L 303.8326110839844 162.5175476074219 L 308.3088989257812 162.5175476074219 C 310.8278503417969 162.5175476074219 311.1024475097656 161.9651031494141 311.6973266601562 159.1905822753906 L 313.0663146972656 159.1905822753906 L 313.0663146972656 167.8070983886719 L 311.6581115722656 167.8070983886719 C 311.1939697265625 165.0854797363281 310.7108459472656 164.4258728027344 308.3088989257812 164.4258728027344 L 303.8326110839844 164.4258728027344 L 303.8326110839844 170.9261932373047 C 303.8326110839844 174.5028991699219 304.1261291503906 174.7388916015625 307.706787109375 175.0036926269531 L 307.706787109375 176.3451843261719 L 295.6089477539062 176.3451843261719 L 295.6089477539062 175.0036926269531 C 298.6895141601562 174.7402191162109 299.0458374023438 174.4885101318359 299.0458374023438 170.9261932373047 L 299.0458374023438 155.9557495117188 C 299.0458374023438 152.4555358886719 298.6751403808594 152.1946868896484 295.6089477539062 151.9286193847656 L 295.6089477539062 150.5870971679688 L 308.7371215820312 150.5870971679688 C 312.2000732421875 150.5870971679688 313.9599609375 150.5478820800781 314.607177734375 150.5079956054688 Z" stroke="none" fill="#1a1311"/>
    </g>
    <g id="パス_9" data-name="パス 9" transform="translate(701.994 425.846)" fill="#1a1311">
      <path d="M 343.3314819335938 175.8870697021484 L 332.6560363769531 175.8870697021484 L 332.6560363769531 175.4967041015625 C 333.9795532226562 175.3562469482422 334.846923828125 175.1925659179688 335.4015808105469 174.595703125 C 335.9899291992188 173.9625854492188 336.0934448242188 172.9923400878906 336.0934448242188 171.187744140625 L 336.0934448242188 155.8682250976562 C 336.0934448242188 154.0549774169922 335.9888305664062 153.0777130126953 335.3944091796875 152.4280853271484 C 334.8404846191406 151.8227691650391 333.9396057128906 151.6465301513672 332.6560363769531 151.5160369873047 L 332.6560363769531 151.1289978027344 L 343.3314819335938 151.1289978027344 L 343.3314819335938 151.5193328857422 C 342.0062255859375 151.6628265380859 341.1353454589844 151.8379058837891 340.582763671875 152.4358673095703 C 339.9854125976562 153.0822906494141 339.8803100585938 154.0576934814453 339.8803100585938 155.8682250976562 L 339.8803100585938 171.187744140625 C 339.8803100585938 172.9855499267578 339.9843444824219 173.9522552490234 340.575439453125 174.5835723876953 C 341.1276245117188 175.1733551025391 341.9994506835938 175.3419952392578 343.3314819335938 175.4932708740234 L 343.3314819335938 175.8870697021484 Z" stroke="none"/>
      <path d="M 340.7989501953125 175.3870697021484 C 340.5804138183594 175.2631988525391 340.3855285644531 175.1123199462891 340.21044921875 174.9253234863281 C 339.4398498535156 174.102294921875 339.3803100585938 172.8570709228516 339.3803100585938 171.187744140625 L 339.3803100585938 155.8682250976562 C 339.3803100585938 154.1890106201172 339.4402160644531 152.935546875 340.2155456542969 152.0965270996094 C 340.3901062011719 151.9076232910156 340.5845336914062 151.7546997070312 340.8025207519531 151.6289978027344 L 335.1525268554688 151.6289978027344 C 336.3113403320312 152.2599639892578 336.5934448242188 153.4499664306641 336.5934448242188 155.8682250976562 L 336.5934448242188 171.187744140625 C 336.5934448242188 173.6028594970703 336.3262329101562 174.7669525146484 335.1594543457031 175.3870697021484 L 340.7989501953125 175.3870697021484 M 343.8314819335938 176.3870697021484 L 332.1560363769531 176.3870697021484 L 332.1560363769531 175.0449066162109 C 335.2509155273438 174.7402648925781 335.5934448242188 174.5297546386719 335.5934448242188 171.187744140625 L 335.5934448242188 155.8682250976562 C 335.5934448242188 152.5118255615234 335.2247924804688 152.2502899169922 332.1560363769531 151.9705047607422 L 332.1560363769531 150.6289978027344 L 343.8314819335938 150.6289978027344 L 343.8314819335938 151.9705047607422 C 340.7490539550781 152.2758026123047 340.3803100585938 152.5118255615234 340.3803100585938 155.8682250976562 L 340.3803100585938 171.187744140625 C 340.3803100585938 174.519287109375 340.7235412597656 174.7147521972656 343.8314819335938 175.0449066162109 L 343.8314819335938 176.3870697021484 Z" stroke="none" fill="#1a1311"/>
    </g>
    <g id="パス_10" data-name="パス 10" transform="translate(693.634 425.846)" fill="#1a1311">
      <path d="M 380.5610656738281 176.2950134277344 L 379.3263549804688 176.2950134277344 L 362.7996520996094 156.3435668945312 L 361.9146118164062 155.2751007080078 L 361.9146118164062 156.6625213623047 L 361.9146118164062 165.9517974853516 C 361.9146118164062 169.5824127197266 362.0154418945312 171.1779632568359 362.1142578125 172.2581787109375 C 362.2630310058594 174.3420867919922 363.3381042480469 175.2513580322266 366.0352172851562 175.5075836181641 L 366.0352172851562 175.8870697021484 L 357.2765808105469 175.8870697021484 L 357.2765808105469 175.4976654052734 C 359.2724304199219 175.2615203857422 360.546630859375 174.5993499755859 360.7887573242188 172.4176788330078 C 360.9292297363281 171.0916137695312 361.01611328125 169.5462951660156 361.01611328125 165.9374084472656 L 361.01611328125 156.2957763671875 C 361.01611328125 155.0730743408203 360.9502258300781 154.1202850341797 360.0990600585938 152.9948577880859 C 359.3042297363281 151.9154205322266 358.302001953125 151.6823883056641 356.7999877929688 151.5191192626953 L 356.7999877929688 151.1289978027344 L 363.1724853515625 151.1289978027344 L 378.7168579101562 169.3405303955078 L 379.59716796875 170.3718719482422 L 379.59716796875 169.0159301757812 L 379.59716796875 160.9819030761719 C 379.59716796875 157.3049468994141 379.5362243652344 155.8996124267578 379.4237365722656 154.5970611572266 C 379.3692321777344 153.8099975585938 379.1968383789062 152.9247589111328 378.3376770019531 152.3195190429688 C 377.7185668945312 151.8833923339844 376.7797241210938 151.6277008056641 375.3275451660156 151.5053253173828 L 375.3275451660156 151.1289978027344 L 384.1156005859375 151.1289978027344 L 384.1156005859375 151.5329742431641 C 381.9557495117188 151.8483123779297 380.8952026367188 152.4438323974609 380.75830078125 154.5119781494141 L 380.7431030273438 154.7527465820312 C 380.6577758789062 156.1010894775391 380.5610656738281 157.6293182373047 380.5610656738281 160.9819030761719 L 380.5610656738281 176.2950134277344 Z" stroke="none"/>
      <path d="M 359.2938842773438 151.6289978027344 C 359.743896484375 151.8689880371094 360.1387023925781 152.2062225341797 360.4996337890625 152.6956329345703 C 361.0408020019531 153.411865234375 361.2957153320312 154.0721588134766 361.4146118164062 154.7467346191406 L 361.4146118164062 153.8876953125 L 379.5614624023438 175.7950134277344 L 380.0610656738281 175.7950134277344 L 380.0610656738281 171.685546875 L 362.94189453125 151.6289978027344 L 359.2938842773438 151.6289978027344 M 378.1466979980469 151.6289978027344 C 378.3204040527344 151.7138824462891 378.4791259765625 151.8075714111328 378.6256103515625 151.9107513427734 C 379.660400390625 152.6396942138672 379.8629455566406 153.70751953125 379.9223022460938 154.5587463378906 C 380.0048828125 155.5165557861328 380.0599060058594 156.5284118652344 380.083740234375 158.4328918457031 C 380.1175231933594 156.7211151123047 380.1836547851562 155.6762390136719 380.2440795898438 154.7211761474609 L 380.2593994140625 154.4789581298828 C 380.3619995117188 152.9287872314453 380.9808959960938 152.1032257080078 381.8916015625 151.6289978027344 L 378.1466979980469 151.6289978027344 M 361.4659118652344 169.7448425292969 C 361.4260864257812 170.9261016845703 361.3641662597656 171.732177734375 361.2857055664062 172.4728393554688 C 361.1166381835938 173.9961700439453 360.4968566894531 174.8746643066406 359.5438232421875 175.3870697021484 L 363.4747009277344 175.3870697021484 C 362.4563293457031 174.8689117431641 361.7355651855469 173.9509887695312 361.615966796875 172.2995147705078 C 361.5606384277344 171.6939849853516 361.5047302246094 170.9288787841797 361.4659118652344 169.7448425292969 M 356.2999877929688 150.6289978027344 L 363.403076171875 150.6289978027344 L 379.09716796875 169.0159301757812 L 379.09716796875 160.9819030761719 C 379.09716796875 157.4509582519531 379.0435791015625 156.0048675537109 378.9252319335938 154.6358489990234 C 378.8062744140625 152.9047088623047 378.0753784179688 152.1685791015625 374.8275451660156 151.9705047607422 L 374.8275451660156 150.6289978027344 L 384.6156005859375 150.6289978027344 L 384.6156005859375 151.9705047607422 C 382.1567993164062 152.273193359375 381.376220703125 152.7471618652344 381.2572021484375 154.5450134277344 C 381.1663208007812 155.9930725097656 381.0610656738281 157.4509582519531 381.0610656738281 160.9819030761719 L 381.0610656738281 176.7950134277344 L 379.0912780761719 176.7950134277344 L 362.4146118164062 156.6625213623047 L 362.4146118164062 165.9517974853516 C 362.4146118164062 169.4402313232422 362.5073852539062 171.0687561035156 362.6126708984375 172.2180480957031 C 362.7427368164062 174.0590515136719 363.630615234375 174.8592376708984 366.5352172851562 175.0455780029297 L 366.5352172851562 176.3870697021484 L 356.7765808105469 176.3870697021484 L 356.7765808105469 175.0455780029297 C 359.105224609375 174.8474731445312 360.0819702148438 174.2532043457031 360.2918090820312 172.3625335693359 C 360.4369506835938 170.9922485351562 360.51611328125 169.4402313232422 360.51611328125 165.9374084472656 L 360.51611328125 156.2957763671875 C 360.51611328125 155.0575561523438 360.4369506835938 154.2691345214844 359.6981811523438 153.2937164306641 C 358.9705810546875 152.3039245605469 358.060546875 152.1430969238281 356.2999877929688 151.9705047607422 L 356.2999877929688 150.6289978027344 Z" stroke="none" fill="#1a1311"/>
    </g>
    <g id="パス_11" data-name="パス 11" transform="translate(677.217 425.888)" fill="#1a1311">
      <path d="M 423.4540710449219 175.8448638916016 L 404.2149658203125 175.8448638916016 L 404.2149658203125 175.4843444824219 C 405.7626342773438 175.3339080810547 406.7705078125 175.1589813232422 407.3743286132812 174.5552673339844 C 408.0520629882812 173.8776702880859 408.1009521484375 172.8150482177734 408.1009521484375 171.1455230712891 L 408.1009521484375 155.8279418945312 C 408.1009521484375 154.0845031738281 407.9880676269531 153.014404296875 407.3926391601562 152.3533782958984 C 406.8594360351562 151.761474609375 406.0575561523438 151.5957489013672 404.84716796875 151.4728240966797 L 404.84716796875 151.0867614746094 L 416.96337890625 151.0867614746094 C 419.6916809082031 151.0867614746094 421.5056762695312 151.0689086914062 422.4674072265625 151.0323486328125 C 422.5292358398438 152.1503143310547 422.6654357910156 154.45361328125 422.7930603027344 156.3711395263672 L 422.2656860351562 156.4446716308594 C 421.880126953125 155.1502227783203 421.3270263671875 153.9554290771484 420.7808227539062 153.2527923583984 C 419.9234924316406 152.0417785644531 419.0144348144531 151.8257751464844 416.8934326171875 151.8257751464844 L 413.9011840820312 151.8257751464844 C 412.2972106933594 151.8257751464844 411.8628540039062 152.0587463378906 411.8628540039062 153.6973419189453 L 411.8628540039062 162.1458435058594 L 411.8628540039062 162.6458435058594 L 412.3628540039062 162.6458435058594 L 416.4266357421875 162.6458435058594 C 419.1487731933594 162.6458435058594 419.6648864746094 161.8125762939453 420.1965942382812 159.2796630859375 L 420.7232666015625 159.2796630859375 L 420.7232666015625 166.8811340332031 L 420.1947021484375 166.8811340332031 C 419.9060974121094 165.5341186523438 419.6536254882812 164.7732086181641 419.156982421875 164.2656707763672 C 418.5533142089844 163.6487426757812 417.6838684082031 163.5280456542969 416.3860778808594 163.5280456542969 L 412.3628540039062 163.5280456542969 L 411.8628540039062 163.5280456542969 L 411.8628540039062 164.0280456542969 L 411.8628540039062 171.21875 C 411.8628540039062 174.1135864257812 412.31640625 175.0846710205078 415.000732421875 175.1306304931641 L 415.0050354003906 175.1307067871094 L 415.0093078613281 175.1307067871094 L 418.1283874511719 175.1307067871094 C 420.55419921875 175.1307067871094 421.2098693847656 174.7842254638672 422.1947631835938 173.5932464599609 C 422.9142761230469 172.7680969238281 423.6405029296875 171.5907440185547 424.4091491699219 170.0021514892578 L 424.9112243652344 170.1280212402344 C 424.5987548828125 171.5037231445312 423.8307495117188 174.5590515136719 423.4540710449219 175.8448638916016 Z" stroke="none"/>
      <path d="M 423.0772399902344 175.3448638916016 C 423.3230895996094 174.4672088623047 423.6726684570312 173.1104583740234 423.9703369140625 171.9085388183594 C 423.4992065429688 172.7222595214844 423.0372924804688 173.3869476318359 422.5758972167969 173.9169158935547 C 421.9629211425781 174.6570281982422 421.4264526367188 175.0965118408203 420.683837890625 175.3448638916016 L 423.0772399902344 175.3448638916016 M 413.1094360351562 175.3448638916016 C 412.6901550292969 175.1826324462891 412.3169860839844 174.9300842285156 412.0249633789062 174.5375518798828 C 411.47119140625 173.7931976318359 411.3628540039062 172.7570190429688 411.3628540039062 171.21875 L 411.3628540039062 153.6973419189453 C 411.3628540039062 152.4942626953125 411.6380310058594 151.8841552734375 412.2279968261719 151.5867614746094 L 407.2282104492188 151.5867614746094 C 408.2616271972656 152.2007446289062 408.6009521484375 153.3806610107422 408.6009521484375 155.8279418945312 L 408.6009521484375 171.1455230712891 C 408.6009521484375 172.8914794921875 408.5401916503906 174.0966644287109 407.7278442382812 174.9088592529297 C 407.5541381835938 175.08251953125 407.358642578125 175.2255249023438 407.1383666992188 175.3448638916016 L 413.1094360351562 175.3448638916016 M 420.2232666015625 165.0868225097656 L 420.2232666015625 161.0614776611328 C 419.7657470703125 162.2478332519531 419.0626831054688 162.8834533691406 417.5771789550781 163.0792541503906 C 418.3143005371094 163.1624755859375 418.9864196777344 163.3764343261719 419.5143737792969 163.9159851074219 C 419.8212585449219 164.2296142578125 420.0440979003906 164.620361328125 420.2232666015625 165.0868225097656 M 422.1873779296875 154.7489471435547 C 422.1128845214844 153.5613098144531 422.0431213378906 152.3871307373047 421.995361328125 151.5470581054688 C 421.3541564941406 151.5634002685547 420.4798889160156 151.5746307373047 419.3637084960938 151.5808715820312 C 420.0965270996094 151.8069458007812 420.6597900390625 152.2198486328125 421.1824035644531 152.9546966552734 C 421.5344543457031 153.4098205566406 421.8800659179688 154.0316314697266 422.1873779296875 154.7489471435547 M 423.8239135742188 176.3448638916016 L 403.7149658203125 176.3448638916016 L 403.7149658203125 175.0288391113281 C 407.3492126464844 174.7000122070312 407.6009521484375 174.4463500976562 407.6009521484375 171.1455230712891 L 407.6009521484375 155.8279418945312 C 407.6009521484375 152.403564453125 407.1393432617188 152.1793212890625 404.34716796875 151.9276123046875 L 404.34716796875 150.5867614746094 L 416.96337890625 150.5867614746094 C 420.9715881347656 150.5867614746094 422.4144287109375 150.546875 422.9400634765625 150.5070190429688 C 422.9805908203125 151.3176574707031 423.164306640625 154.4707336425781 423.3231811523438 156.8020629882812 L 421.9025268554688 157.0001373291016 C 421.5462036132812 155.6527404785156 420.9696044921875 154.3053588867188 420.3792419433594 153.5509033203125 C 419.6934814453125 152.5774536132812 419.0390930175781 152.3257751464844 416.8934326171875 152.3257751464844 L 413.9011840820312 152.3257751464844 C 412.4929504394531 152.3257751464844 412.3628540039062 152.4199066162109 412.3628540039062 153.6973419189453 L 412.3628540039062 162.1458435058594 L 416.4266357421875 162.1458435058594 C 418.9089965820312 162.1458435058594 419.2365417480469 161.5522613525391 419.7882690429688 158.7796630859375 L 421.2232666015625 158.7796630859375 L 421.2232666015625 167.3811340332031 L 419.7882690429688 167.3811340332031 C 419.1959533691406 164.4765319824219 418.8782653808594 164.0280456542969 416.3860778808594 164.0280456542969 L 412.3628540039062 164.0280456542969 L 412.3628540039062 171.21875 C 412.3628540039062 173.9671478271484 412.7191772460938 174.5914916992188 415.0093078613281 174.6307067871094 L 418.1283874511719 174.6307067871094 C 420.41650390625 174.6307067871094 420.9408874511719 174.3260498046875 421.8135986328125 173.2695617675781 C 422.720458984375 172.2314147949219 423.5277709960938 170.7088012695312 424.1337890625 169.4176483154297 L 425.5027465820312 169.7608489990234 C 425.290283203125 170.8160095214844 424.1946411132812 175.2073211669922 423.8239135742188 176.3448638916016 Z" stroke="none" fill="#1a1311"/>
    </g>
    <path id="パス_12" data-name="パス 12" d="M308.338,106.8a6.6,6.6,0,1,0-9.285-.99,6.6,6.6,0,0,0,9.285.99" transform="translate(713.963 445.088)" fill="#beaf60" stroke="#beaf60" stroke-width="1"/>
    <path id="パス_13" data-name="パス 13" d="M131.341,11.741a6.6,6.6,0,1,0-9.285-.991,6.6,6.6,0,0,0,9.285.991" transform="translate(775.247 478)" fill="#beaf60" stroke="#beaf60" stroke-width="1"/>
    <path id="パス_14" data-name="パス 14" d="M238.533,34.219a3.086,3.086,0,1,0-4.34-.463,3.085,3.085,0,0,0,4.34.463" transform="translate(736.15 468.052)" fill="#beaf60" stroke="#beaf60" stroke-width="1"/>
    <path id="パス_15" data-name="パス 15" d="M381.9,83.021a3.086,3.086,0,1,0-4.34-.463,3.085,3.085,0,0,0,4.34.463" transform="translate(686.509 451.155)" fill="#beaf60" stroke="#beaf60" stroke-width="1"/>
    <path id="パス_16" data-name="パス 16" d="M46.837,83.021a3.086,3.086,0,1,0-4.34-.463,3.085,3.085,0,0,0,4.34.463" transform="translate(802.523 451.155)" fill="#beaf60" stroke="#beaf60" stroke-width="1"/>
    <path id="パス_17" data-name="パス 17" d="M408.013,11.591a3.086,3.086,0,1,0-4.34-.464,3.086,3.086,0,0,0,4.34.464" transform="translate(677.469 475.887)" fill="#beaf60" stroke="#beaf60" stroke-width="1"/>
    <path id="パス_18" data-name="パス 18" d="M14.151,11.591a3.086,3.086,0,1,0-4.34-.464,3.086,3.086,0,0,0,4.34.464" transform="translate(813.84 475.887)" fill="#beaf60" stroke="#beaf60" stroke-width="1"/>
    <path id="パス_19" data-name="パス 19" d="M131.241,106.512a4.881,4.881,0,1,0-6.863-.733,4.881,4.881,0,0,0,6.863.733" transform="translate(774.31 444.126)" fill="#beaf60" stroke="#beaf60" stroke-width="1"/>
    <path id="パス_20" data-name="パス 20" d="M163.146,104.312a3.881,3.881,0,1,0-5.458-.582,3.88,3.88,0,0,0,5.458.582" transform="translate(762.7 444.272)" fill="#beaf60" stroke="#beaf60" stroke-width="1"/>
    <path id="パス_21" data-name="パス 21" d="M307.749,10.227a3.881,3.881,0,1,0-5.457-.582,3.881,3.881,0,0,0,5.457.582" transform="translate(712.632 476.848)" fill="#beaf60" stroke="#beaf60" stroke-width="1"/>
    <path id="パス_22" data-name="パス 22" d="M334.991,87.281a5.007,5.007,0,1,0-7.041-.751,5.008,5.008,0,0,0,7.041.751" transform="translate(703.835 450.863)" fill="#beaf60" stroke="#beaf60" stroke-width="1"/>
    <path id="パス_23" data-name="パス 23" d="M241.4,84.552a5.007,5.007,0,1,0-7.041-.751,5.008,5.008,0,0,0,7.041.751" transform="translate(736.239 451.807)" fill="#beaf60" stroke="#beaf60" stroke-width="1"/>
    <path id="パス_24" data-name="パス 24" d="M97.432,83.65a2.5,2.5,0,1,0-3.519-.376,2.5,2.5,0,0,0,3.519.376" transform="translate(784.676 450.577)" fill="#beaf60" stroke="#beaf60" stroke-width="1"/>
    <path id="パス_25" data-name="パス 25" d="M381.539,31.181a5.007,5.007,0,1,0-7.041-.751,5.006,5.006,0,0,0,7.041.751" transform="translate(687.718 470.286)" fill="#beaf60" stroke="#beaf60" stroke-width="1"/>
    <path id="パス_26" data-name="パス 26" d="M44.088,31.181a5.007,5.007,0,1,0-7.041-.751,5.006,5.006,0,0,0,7.041.751" transform="translate(804.558 470.286)" fill="#beaf60" stroke="#beaf60" stroke-width="1"/>
    <path id="パス_27" data-name="パス 27" d="M189.119,31.261a3.3,3.3,0,1,0-4.638-.495,3.3,3.3,0,0,0,4.638.495" transform="translate(753.379 469.207)" fill="#beaf60" stroke="#beaf60" stroke-width="1"/>
    <path id="パス_28" data-name="パス 28" d="M189.082,85.043a2.875,2.875,0,1,0-4.043-.431,2.876,2.876,0,0,0,4.043.431" transform="translate(753.153 450.325)" fill="#beaf60" stroke="#beaf60" stroke-width="1"/>
    <path id="パス_29" data-name="パス 29" d="M97.559,33.148a3.3,3.3,0,1,0-4.638-.495,3.3,3.3,0,0,0,4.638.495" transform="translate(785.081 468.554)" fill="#beaf60" stroke="#beaf60" stroke-width="1"/>
    <path id="パス_30" data-name="パス 30" d="M332.218,28.388a4.981,4.981,0,1,0-7.005-.747,4.98,4.98,0,0,0,7.005.747" transform="translate(704.781 471.238)" fill="#beaf60" stroke="#beaf60" stroke-width="1"/>
    <path id="パス_31" data-name="パス 31" d="M273.673,10.344a3.3,3.3,0,1,0-4.639-.494,3.3,3.3,0,0,0,4.639.494" transform="translate(724.103 476.449)" fill="#beaf60" stroke="#beaf60" stroke-width="1"/>
    <path id="パス_32" data-name="パス 32" d="M407.213,100.219a3.3,3.3,0,1,0-4.638-.494,3.3,3.3,0,0,0,4.638.494" transform="translate(677.866 445.331)" fill="#beaf60" stroke="#beaf60" stroke-width="1"/>
    <path id="パス_33" data-name="パス 33" d="M25.9,100.219a3.3,3.3,0,1,0-4.638-.494,3.3,3.3,0,0,0,4.638.494" transform="translate(809.891 445.331)" fill="#beaf60" stroke="#beaf60" stroke-width="1"/>
    <path id="パス_34" data-name="パス 34" d="M273.592,106.687a5.988,5.988,0,1,0-8.42-.9,5.987,5.987,0,0,0,8.42.9" transform="translate(725.647 444.747)" fill="#beaf60" stroke="#beaf60" stroke-width="1"/>
    <path id="パス_35" data-name="パス 35" d="M164.482,14.4a4.691,4.691,0,1,0-6.6-.7,4.691,4.691,0,0,0,6.6.7" transform="translate(762.694 475.902)" fill="#beaf60" stroke="#beaf60" stroke-width="1"/>
  </g>
</svg>
