<svg xmlns="http://www.w3.org/2000/svg" version="1.1" xmlns:xlink="http://www.w3.org/1999/xlink" xmlns:svgjs="http://svgjs.dev/svgjs" width="594" height="259.512"><svg id="SvgjsSvg1084" data-name="グループ 5" xmlns="http://www.w3.org/2000/svg" xmlns:xlink="http://www.w3.org/1999/xlink" width="594" height="259.512" viewBox="0 0 594 259.512">
  <defs>
    <clipPath id="SvgjsClipPath1083">
      <rect id="SvgjsRect1082" data-name="長方形 1" width="594" height="259.512" fill="none"></rect>
    </clipPath>
  </defs>
  <g id="SvgjsG1081" data-name="グループ 1" clip-path="url(#clip-path)">
    <path id="SvgjsPath1080" data-name="パス 1" d="M50.473,190.66a113.226,113.226,0,0,1-4.586,12.976,72.255,72.255,0,0,1-15.129,2.085C9.461,205.72,0,191.872,0,178.309c0-16.966,12.931-28.528,32.24-28.528,7.14,0,13.281,1.643,15.57,1.949.385,3.814.96,9.507,1.567,13.3l-3.038.578c-1.7-6.109-4-9.272-8.308-11a21.383,21.383,0,0,0-7.685-1.3c-12.523,0-18.942,10-18.942,23.161,0,15.366,7.917,25.582,19.926,25.582,7.437,0,11.88-3.71,16.24-12.485Z" transform="translate(0 53.792)" fill="#1a1311"></path>
    <path id="SvgjsPath1079" data-name="パス 2" d="M100.807,153.418c-5.245.436-6.819,1.916-7.089,5.17-.19,2.27-.355,5.3-.355,11.7v10.13c0,7.546-1.1,14.453-5.82,19.426-3.821,3.984-9.582,5.54-15.373,5.54-5.205,0-10.529-1.1-14.314-4.11-4.836-3.683-7.171-8.94-7.171-18.31v-20.9c0-7.521-.714-8.069-7.089-8.647v-2.789h24.13v2.789c-6.323.518-7.038,1.125-7.038,8.647v21.451c0,10.208,4.936,16.477,14.127,16.477,10.465,0,14.55-7.248,14.55-20.066V170.29c0-6.347-.249-9.371-.412-11.757-.3-3.761-2.465-4.785-8.346-5.116v-2.789h20.2Z" transform="translate(15.657 54.096)" fill="#1a1311"></path>
    <path id="SvgjsPath1078" data-name="パス 3" d="M134.135,189.969c-.6,3.194-2.967,11.871-3.736,14.21H90.431V201.39c7.335-.58,7.994-1.1,7.994-8.049v-31.85c0-6.948-.822-7.52-7.146-8.073v-2.789h24.436v2.789c-6.484.607-7.338,1.1-7.338,8.073V194c0,4.7.338,6.446,4.927,6.531.137.052,4.675.082,5.064.082,4.522,0,5.756-.817,7.7-2.983a31.884,31.884,0,0,0,5.133-8.539Z" transform="translate(32.477 54.096)" fill="#1a1311"></path>
    <path id="SvgjsPath1077" data-name="パス 4" d="M168.636,164.949a26.983,26.983,0,0,0-3.227-7.64c-1.426-1.9-2.142-2.535-6.887-2.535h-6.309v39.211c0,6.748.767,7.386,8.272,7.933v2.789h-26.17v-2.789c7.233-.548,7.944-1.158,7.944-7.933V154.775H136.37c-4.586,0-5.9.655-7.411,2.805A32.8,32.8,0,0,0,125.812,165h-2.9c.548-5.668,1.1-11.661,1.288-15.847h2.27c1.237,1.925,2.2,2,4.609,2h32.838a4.954,4.954,0,0,0,4.576-2h2.247c.053,3.6.382,10.393.794,15.547Z" transform="translate(44.143 53.567)" fill="#1a1311"></path>
    <path id="SvgjsPath1076" data-name="パス 5" d="M166.513,204.179v-2.79c6.434-.633,7.146-1.071,7.146-8.019V161.521c0-6.978-.767-7.522-7.146-8.1v-2.789h24.273v2.789c-6.408.635-7.175,1.125-7.175,8.1V193.37c0,6.926.714,7.332,7.175,8.019v2.79Z" transform="translate(59.801 54.096)" fill="#1a1311"></path>
    <path id="SvgjsPath1075" data-name="パス 6" d="M259.9,204.731c-.7,0-1.658-.03-2.675-.111-8.905-.466-12.011-2.46-14.888-6.5-3.208-4.416-5.8-9.5-8.542-14.183-1.38-2.37-2.5-2.864-5.688-2.864l-2.081-.054V193.37c0,6.789.854,7.307,7.176,8.019v2.79H209.12v-2.79c6.463-.686,7.146-1.23,7.146-8.019V161.354c0-6.679-.852-7.354-7.146-7.937v-2.788H232c6.87,0,11.013.8,14.3,3.016a12.478,12.478,0,0,1,5.548,10.927c0,7.246-4.745,11.32-10.412,13.635,1.322,2.5,4.651,7.911,7.123,11.675a68.852,68.852,0,0,0,6.347,8.537,10.762,10.762,0,0,0,5.477,3.683ZM228.86,177.85c3.8,0,6.518-.607,8.42-2.23,2.891-2.335,4.1-5.522,4.1-9.81,0-8.764-5.313-11.921-10.531-11.921-2.283,0-3.47.329-3.993.822-.635.523-.828,1.456-.828,3.274V177.85Z" transform="translate(75.103 54.096)" fill="#beaf60"></path>
    <path id="SvgjsPath1074" data-name="パス 7" d="M279.981,192.219c-5.112,7.125-11.414,8.688-14.585,8.688-10.7,0-16.9-8.186-16.9-17.874a21.491,21.491,0,0,1,5.891-14.685,17.886,17.886,0,0,1,12.651-5.852,13.276,13.276,0,0,1,13.246,13.2c-.03,1.487-.169,2.657-1.274,2.933-1.593.383-12.834,1.018-21.461,1.348.128,9.54,5.653,14.017,11.555,14.017a14.084,14.084,0,0,0,9.449-3.882Zm-14.706-26.434c-3.467,0-6.586,3.757-7.312,10.323,3.811-.053,7.46-.107,11.411-.246,1.27-.054,1.763-.3,1.763-1.649.082-4.206-2.158-8.428-5.862-8.428" transform="translate(89.245 58.358)" fill="#beaf60"></path>
    <path id="SvgjsPath1073" data-name="パス 8" d="M333,164.061a22.642,22.642,0,0,0-3.251-7.169c-1.672-2.157-2.8-2.6-6.987-2.6h-7.1c-2.658,0-2.959.2-2.959,2.852v18.335h9.306c5.237,0,5.808-1.149,7.044-6.917H331.9v17.913h-2.928c-.965-5.658-1.969-7.029-6.963-7.029h-9.306v13.514c0,7.436.61,7.926,8.054,8.477v2.789H295.609v-2.789c6.4-.548,7.145-1.071,7.145-8.477V161.834c0-7.277-.771-7.819-7.145-8.372v-2.789H322.9c7.2,0,10.858-.082,12.2-.164.084,1.949.466,8.572.878,13.117Z" transform="translate(106.164 54.053)" fill="#1a1311"></path>
    <path id="SvgjsPath1072" data-name="パス 9" d="M332.156,204.179v-2.79c6.434-.633,7.146-1.071,7.146-8.019V161.521c0-6.978-.766-7.522-7.146-8.1v-2.789h24.273v2.789c-6.408.635-7.175,1.125-7.175,8.1V193.37c0,6.926.714,7.332,7.175,8.019v2.79Z" transform="translate(119.29 54.096)" fill="#1a1311"></path>
    <path id="SvgjsPath1071" data-name="パス 10" d="M415.167,153.418c-5.112.629-6.734,1.615-6.982,5.352-.189,3.01-.408,6.041-.408,13.382v32.875h-4.1l-34.67-41.855v19.312c0,7.252.193,10.638.412,13.027.27,3.827,2.116,5.491,8.155,5.878v2.789H357.291V201.39c4.841-.412,6.872-1.647,7.308-5.578a122.6,122.6,0,0,0,.466-13.358V162.41c0-2.574-.165-4.213-1.7-6.241-1.513-2.058-3.4-2.392-7.065-2.751v-2.789h14.767l32.627,38.226v-16.7c0-7.341-.112-10.347-.357-13.193-.247-3.6-1.767-5.129-8.519-5.541v-2.789h20.349Z" transform="translate(127.961 54.096)" fill="#1a1311"></path>
    <path id="SvgjsPath1070" data-name="パス 11" d="M449.011,190.535c-.442,2.194-2.72,11.323-3.49,13.688H403.715v-2.736c7.555-.684,8.079-1.211,8.079-8.073V161.569c0-7.119-.96-7.585-6.764-8.109v-2.788h26.229c8.333,0,11.332-.083,12.425-.166.084,1.685.466,8.24.8,13.087l-2.953.412a21.725,21.725,0,0,0-3.167-7.171c-1.426-2.024-2.786-2.547-7.247-2.547h-6.221c-2.928,0-3.2.2-3.2,2.851V174.7h8.448c5.161,0,5.842-1.234,6.989-7h2.983v17.882h-2.983c-1.231-6.039-1.892-6.971-7.073-6.971h-8.364v14.949c0,5.714.741,7.012,5.5,7.093h6.484c4.757,0,5.847-.633,7.661-2.83a36.243,36.243,0,0,0,4.824-8.008Z" transform="translate(144.989 54.053)" fill="#1a1311"></path>
    <path id="SvgjsPath1069" data-name="パス 12" d="M319.938,119.465a13.728,13.728,0,1,0-19.3-2.059,13.726,13.726,0,0,0,19.3,2.059" transform="translate(106.874 34.138)" fill="#beaf60"></path>
    <path id="SvgjsPath1068" data-name="パス 13" d="M142.941,24.41a13.728,13.728,0,1,0-19.3-2.06,13.728,13.728,0,0,0,19.3,2.06" transform="translate(43.308 0)" fill="#beaf60"></path>
    <path id="SvgjsPath1067" data-name="パス 14" d="M243.954,40.139a6.416,6.416,0,1,0-9.023-.962,6.413,6.413,0,0,0,9.023.962" transform="translate(83.861 10.319)" fill="#beaf60"></path>
    <path id="SvgjsPath1066" data-name="パス 15" d="M387.324,88.941a6.416,6.416,0,1,0-9.023-.962,6.414,6.414,0,0,0,9.023.962" transform="translate(135.351 27.845)" fill="#beaf60"></path>
    <path id="SvgjsPath1065" data-name="パス 16" d="M52.26,88.941a6.417,6.417,0,1,0-9.023-.962,6.414,6.414,0,0,0,9.023.962" transform="translate(15.016 27.845)" fill="#beaf60"></path>
    <path id="SvgjsPath1064" data-name="パス 17" d="M413.434,17.511a6.416,6.416,0,1,0-9.023-.964,6.415,6.415,0,0,0,9.023.964" transform="translate(144.728 2.192)" fill="#beaf60"></path>
    <path id="SvgjsPath1063" data-name="パス 18" d="M19.572,17.511a6.416,6.416,0,1,0-9.023-.964,6.415,6.415,0,0,0,9.023.964" transform="translate(3.277 2.192)" fill="#beaf60"></path>
    <path id="SvgjsPath1062" data-name="パス 19" d="M139.814,115.877a10.147,10.147,0,1,0-14.267-1.524,10.148,10.148,0,0,0,14.267,1.524" transform="translate(44.28 35.136)" fill="#beaf60"></path>
    <path id="SvgjsPath1061" data-name="パス 20" d="M169.963,111.758a8.068,8.068,0,1,0-11.346-1.211,8.067,8.067,0,0,0,11.346,1.211" transform="translate(56.322 34.984)" fill="#beaf60"></path>
    <path id="SvgjsPath1060" data-name="パス 21" d="M314.566,17.673a8.068,8.068,0,1,0-11.345-1.211,8.068,8.068,0,0,0,11.345,1.211" transform="translate(108.255 1.195)" fill="#beaf60"></path>
    <path id="SvgjsPath1059" data-name="パス 22" d="M343.788,96.887a10.41,10.41,0,1,0-14.638-1.562,10.411,10.411,0,0,0,14.638,1.562" transform="translate(117.38 28.148)" fill="#beaf60"></path>
    <path id="SvgjsPath1058" data-name="パス 23" d="M250.2,94.158A10.41,10.41,0,1,0,235.561,92.6,10.411,10.411,0,0,0,250.2,94.158" transform="translate(83.769 27.168)" fill="#beaf60"></path>
    <path id="SvgjsPath1057" data-name="パス 24" d="M101.827,88.45a5.2,5.2,0,1,0-7.315-.782,5.2,5.2,0,0,0,7.315.782" transform="translate(33.528 28.444)" fill="#beaf60"></path>
    <path id="SvgjsPath1056" data-name="パス 25" d="M390.336,40.787a10.409,10.409,0,1,0-14.638-1.56,10.408,10.408,0,0,0,14.638,1.56" transform="translate(134.097 8.001)" fill="#beaf60"></path>
    <path id="SvgjsPath1055" data-name="パス 26" d="M52.885,40.787a10.409,10.409,0,1,0-14.638-1.56,10.408,10.408,0,0,0,14.638,1.56" transform="translate(12.906 8.001)" fill="#beaf60"></path>
    <path id="SvgjsPath1054" data-name="パス 27" d="M194.913,37.589a6.858,6.858,0,1,0-9.643-1.029,6.858,6.858,0,0,0,9.643,1.029" transform="translate(65.991 9.12)" fill="#beaf60"></path>
    <path id="SvgjsPath1053" data-name="パス 28" d="M194.132,90.56a5.977,5.977,0,1,0-8.4-.9,5.979,5.979,0,0,0,8.4.9" transform="translate(66.225 28.706)" fill="#beaf60"></path>
    <path id="SvgjsPath1052" data-name="パス 29" d="M103.353,39.476a6.858,6.858,0,1,0-9.643-1.029,6.858,6.858,0,0,0,9.643,1.029" transform="translate(33.108 9.798)" fill="#beaf60"></path>
    <path id="SvgjsPath1051" data-name="パス 30" d="M340.969,37.945a10.356,10.356,0,1,0-14.563-1.552,10.353,10.353,0,0,0,14.563,1.552" transform="translate(116.399 7.014)" fill="#beaf60"></path>
    <path id="SvgjsPath1050" data-name="パス 31" d="M279.467,16.672a6.858,6.858,0,1,0-9.644-1.028,6.857,6.857,0,0,0,9.644,1.028" transform="translate(96.357 1.608)" fill="#beaf60"></path>
    <path id="SvgjsPath1049" data-name="パス 32" d="M413.007,106.547a6.857,6.857,0,1,0-9.643-1.027,6.858,6.858,0,0,0,9.643,1.027" transform="translate(144.316 33.886)" fill="#beaf60"></path>
    <path id="SvgjsPath1048" data-name="パス 33" d="M31.7,106.547a6.857,6.857,0,1,0-9.643-1.027,6.858,6.858,0,0,0,9.643,1.027" transform="translate(7.374 33.886)" fill="#beaf60"></path>
    <path id="SvgjsPath1047" data-name="パス 34" d="M284.111,118.175a12.449,12.449,0,1,0-17.506-1.867,12.448,12.448,0,0,0,17.506,1.867" transform="translate(94.756 34.491)" fill="#beaf60"></path>
    <path id="SvgjsPath1046" data-name="パス 35" d="M172.722,23.4a9.753,9.753,0,1,0-13.714-1.462A9.752,9.752,0,0,0,172.722,23.4" transform="translate(56.329 2.176)" fill="#beaf60"></path>
  </g>
</svg><style>@media (prefers-color-scheme: light) { :root { filter: none; } }
@media (prefers-color-scheme: dark) { :root { filter: none; } }
</style></svg>